<svg version="1.1" id="Layer_1" xmlns="http://www.w3.org/2000/svg" xmlns:xlink="http://www.w3.org/1999/xlink" x="0px" y="0px"
	 width="100%" viewBox="0 0 225 225" enable-background="new 0 0 225 225" xml:space="preserve">
<path fill="#FEFEFE" opacity="1.000000" stroke="none" 
	d="
M135.000000,226.000000 
	C90.000000,226.000000 45.500004,226.000000 1.000006,226.000000 
	C1.000004,151.000000 1.000004,76.000015 1.000002,1.000016 
	C75.999992,1.000011 150.999985,1.000011 225.999969,1.000005 
	C225.999985,75.999985 225.999985,150.999969 226.000000,225.999969 
	C195.833328,226.000000 165.666672,226.000000 135.000000,226.000000 
M147.996826,191.871140 
	C149.036758,191.992737 150.076706,192.114319 151.116638,192.235916 
	C151.116638,187.303482 151.116638,182.371063 151.116638,177.438629 
	C150.256134,177.412888 149.395615,177.387131 148.535110,177.361374 
	C148.385513,180.257919 148.235916,183.154465 147.430710,185.831207 
	C145.221039,182.847626 143.011353,179.864044 140.801682,176.880463 
	C140.402512,177.058914 140.003357,177.237366 139.604187,177.415817 
	C139.604187,182.639801 139.604187,187.863770 139.604187,193.087753 
	C140.150528,193.140503 140.696869,193.193237 141.243210,193.245987 
	C141.616501,190.598389 141.989777,187.950775 142.446716,184.709793 
	C144.459045,187.156052 146.096985,189.147217 147.996826,191.871140 
M86.698082,115.034348 
	C87.409637,115.054436 88.121201,115.074524 89.438843,115.479309 
	C97.653793,117.986137 100.942467,122.263321 101.047112,130.683670 
	C101.123741,136.848572 100.998711,143.018967 101.209496,149.178513 
	C101.524445,158.381638 105.176949,162.126633 113.447250,162.096222 
	C121.024406,162.068359 124.458939,158.375153 124.811630,149.490356 
	C125.029610,143.998917 125.209747,138.476990 124.883530,132.999908 
	C124.424072,125.285812 126.928352,119.427841 134.704559,115.843491 
	C135.111145,115.656952 135.517746,115.470413 136.451279,115.390274 
	C136.968552,115.254616 137.485809,115.118958 138.674896,115.087708 
	C139.118759,115.002975 139.562637,114.918243 140.778702,115.010231 
	C147.271744,115.623680 152.322037,118.533279 154.380157,124.904953 
	C155.316299,127.803123 155.034988,131.118668 155.159042,134.250702 
	C155.623657,145.979996 160.904404,154.870560 171.104080,160.576492 
	C174.097565,162.251099 177.963974,163.769760 179.002716,157.500809 
	C179.002716,157.500809 178.898819,157.034317 179.083832,156.356201 
	C179.028610,155.894440 178.973389,155.432678 179.053589,154.045990 
	C178.991089,145.382996 178.928574,136.719986 179.013123,127.228844 
	C177.257904,108.942268 164.036026,94.925751 145.979462,92.420532 
	C144.001648,92.146133 141.895935,92.793671 139.485107,92.977913 
	C139.485107,92.977913 139.122787,92.924950 138.736435,92.267532 
	C129.044525,92.599686 120.314934,95.501862 113.053223,102.376389 
	C105.630745,96.041840 97.515343,92.291245 87.347145,92.050728 
	C86.846878,92.353653 86.346619,92.656586 85.166389,92.671524 
	C82.516434,92.940269 79.872177,93.339447 77.215546,93.455620 
	C64.415298,94.015373 47.244858,109.245483 47.002918,128.974945 
	C47.053440,138.626907 47.103962,148.278854 47.162388,158.661545 
	C49.380222,162.230286 52.414394,161.018097 55.017593,159.607117 
	C65.732361,153.799545 71.033340,144.756500 70.911705,132.471664 
	C70.799179,121.107285 74.759888,116.619164 86.698082,115.034348 
M186.857758,173.114929 
	C187.768295,177.013336 190.353333,179.185684 194.203583,179.502197 
	C198.356796,179.843643 200.892441,177.375061 202.882889,173.938568 
	C222.948334,139.295563 219.709549,91.734383 194.476212,60.171661 
	C174.273895,34.901955 148.321518,20.904278 115.222740,21.622459 
	C105.320648,21.837315 95.508232,21.288721 85.701027,23.840322 
	C18.202616,41.401810 -9.146853,117.313354 21.886755,173.148849 
	C24.960402,178.678940 29.350113,180.361252 33.717796,177.950714 
	C38.304546,175.419266 39.253792,171.049942 36.293411,165.497635 
	C26.722113,147.546249 23.732597,128.566940 26.852797,108.472710 
	C33.907837,63.037949 79.736412,29.782652 125.144005,37.291496 
	C185.987015,47.352837 217.696014,111.493439 188.714493,165.761459 
	C187.667267,167.722366 187.411453,170.105911 186.857758,173.114929 
M102.829308,77.543907 
	C100.263512,83.608658 100.952705,88.541008 104.872993,92.169876 
	C108.446419,95.477669 114.015511,96.210548 118.358765,93.944580 
	C122.945946,91.551353 125.031029,87.371254 124.383026,81.466164 
	C123.854637,76.651100 120.596092,73.807076 116.418747,72.445076 
	C111.171234,70.734138 106.582771,72.326752 102.829308,77.543907 
M55.031956,72.428139 
	C47.391438,76.212532 44.868427,82.953560 48.651371,89.475883 
	C51.213467,93.893295 56.192894,96.042023 61.478683,95.011139 
	C66.242516,94.082047 70.161201,89.586182 70.653465,84.485039 
	C71.112968,79.723320 68.306076,74.614395 63.653164,72.983185 
	C61.222702,72.131111 58.391964,72.420822 55.031956,72.428139 
M156.713913,78.423752 
	C154.583359,85.053017 155.774490,89.746620 160.436432,93.092148 
	C164.496933,96.006073 170.517487,96.001701 174.401962,92.919678 
	C178.233978,89.879295 179.968658,85.850647 178.845261,81.023041 
	C177.737000,76.260399 174.638748,73.019920 169.805084,72.100433 
	C164.415207,71.075142 159.987015,72.899513 156.713913,78.423752 
M88.396530,186.379333 
	C88.577980,188.645401 88.759430,190.911469 88.940880,193.177536 
	C89.561119,193.189941 90.181358,193.202332 90.801598,193.214722 
	C91.255539,190.588409 91.709480,187.962082 92.195305,185.151291 
	C94.857513,188.157028 97.255104,190.863983 99.652687,193.570923 
	C100.091690,193.244354 100.530685,192.917786 100.969688,192.591232 
	C100.645790,187.554169 101.897072,182.359192 100.225044,177.457275 
	C99.588142,177.462143 98.951248,177.467010 98.314346,177.471878 
	C98.086876,180.175949 97.859406,182.880020 97.587135,186.116547 
	C94.806419,182.667648 92.497177,179.803497 90.015312,176.725266 
	C89.233612,177.787552 88.734711,178.154846 88.706078,178.555740 
	C88.541389,180.862000 88.488060,183.176239 88.396530,186.379333 
M123.889824,188.033691 
	C124.133606,189.777084 124.377396,191.520477 124.756172,194.229279 
	C127.709740,189.802185 127.672707,180.367004 125.170769,176.909271 
	C123.345963,178.986542 121.582428,180.994049 119.900475,182.908707 
	C117.871742,180.673859 116.110161,178.733307 114.348579,176.792770 
	C113.935966,177.021515 113.523354,177.250259 113.110741,177.478989 
	C113.238625,182.634857 111.831131,187.928253 114.825836,192.890991 
	C115.693634,191.660431 115.913612,190.438797 115.980003,189.208878 
	C116.056641,187.789230 115.997833,186.362259 115.997833,184.494736 
	C117.638443,185.862671 118.825668,186.852570 120.837257,188.529831 
	C121.650711,187.008224 122.336662,185.725113 123.022614,184.441986 
	C123.314323,184.611053 123.606033,184.780121 123.897743,184.949188 
	C123.897743,185.718094 123.897743,186.487000 123.889824,188.033691 
M56.493320,189.853210 
	C59.039749,183.810471 57.415882,178.671326 52.462536,177.096848 
	C48.116730,175.715469 43.658913,178.177841 42.403885,182.783371 
	C41.376511,186.553452 42.477364,189.830780 45.711575,191.931732 
	C49.383743,194.317154 52.961575,193.717575 56.493320,189.853210 
M171.401031,179.275558 
	C168.608459,187.459122 178.215881,184.447952 180.710281,189.911545 
	C176.650528,189.607666 173.540100,189.374847 170.429672,189.142029 
	C170.298813,189.619690 170.167953,190.097351 170.037094,190.574997 
	C171.837296,191.441422 173.558136,192.714264 175.455200,193.084747 
	C178.807083,193.739334 182.080933,192.989761 182.932861,189.138245 
	C183.739258,185.492569 180.835983,184.369781 177.989563,183.473099 
	C176.578537,183.028580 175.230743,182.383331 173.854340,181.828903 
	C173.994659,181.205627 174.134964,180.582352 174.275284,179.959076 
	C176.873322,180.224915 179.471375,180.490753 182.225922,180.772598 
	C180.106384,175.947998 176.906403,175.402573 171.401031,179.275558 
M78.957069,189.912811 
	C77.485870,187.836716 78.382721,187.036880 80.564003,186.753677 
	C81.987251,186.568878 83.381660,186.162003 84.788994,185.854630 
	C84.788712,185.387482 84.788437,184.920334 84.788155,184.453186 
	C83.654900,184.134796 82.485970,183.905960 81.398499,183.472672 
	C80.326721,183.045624 79.337433,182.411514 78.311951,181.868256 
	C79.456711,181.290207 80.556313,180.578979 81.758812,180.171188 
	C82.983818,179.755737 84.310051,179.638840 85.591965,179.391235 
	C85.560303,178.683228 85.528648,177.975235 85.496986,177.267227 
	C82.440590,177.267227 79.269547,176.813721 76.396759,177.540009 
	C75.520065,177.761627 75.222557,181.211899 75.087372,183.212448 
	C74.876839,186.328232 75.031685,189.468704 75.031685,193.452866 
	C78.831787,193.270370 82.126762,193.112122 85.421730,192.953873 
	C85.448486,192.239685 85.475243,191.525497 85.501999,190.811295 
	C83.579880,190.580475 81.657753,190.349655 78.957069,189.912811 
M165.621796,180.109619 
	C165.006500,179.562210 164.463791,178.679596 163.762833,178.527802 
	C161.271286,177.988266 158.659622,177.247025 156.243210,177.601883 
	C155.564194,177.701599 155.289932,181.284454 155.034012,183.295609 
	C154.848038,184.757172 154.993469,186.261444 154.998520,187.746658 
	C155.017456,193.310684 158.120956,195.072464 163.124115,192.361435 
	C167.130905,190.190323 168.118164,186.309570 165.621796,180.109619 
M72.529297,183.183014 
	C71.221611,181.178253 70.316780,178.523834 68.474388,177.381332 
	C67.086479,176.520676 64.214287,177.065048 62.523289,177.963577 
	C60.877621,178.838028 62.083248,191.157974 64.174614,193.728973 
	C64.718063,191.491867 65.143150,189.742004 65.241669,189.336456 
	C68.171448,187.069931 70.229996,185.477386 72.529297,183.183014 
M133.600906,177.253906 
	C130.968445,181.107468 131.320145,190.958954 135.308701,193.752457 
	C134.979538,187.809219 134.695694,182.684128 133.600906,177.253906 
z"/>
<path fill="#3273BC" opacity="1.000000" stroke="none" 
	d="
M186.822296,172.703705 
	C187.411453,170.105911 187.667267,167.722366 188.714493,165.761459 
	C217.696014,111.493439 185.987015,47.352837 125.144005,37.291496 
	C79.736412,29.782652 33.907837,63.037949 26.852797,108.472710 
	C23.732597,128.566940 26.722113,147.546249 36.293411,165.497635 
	C39.253792,171.049942 38.304546,175.419266 33.717796,177.950714 
	C29.350113,180.361252 24.960402,178.678940 21.886755,173.148849 
	C-9.146853,117.313354 18.202616,41.401810 85.701027,23.840322 
	C95.508232,21.288721 105.320648,21.837315 115.222740,21.622459 
	C148.321518,20.904278 174.273895,34.901955 194.476212,60.171661 
	C219.709549,91.734383 222.948334,139.295563 202.882889,173.938568 
	C200.892441,177.375061 198.356796,179.843643 194.203583,179.502197 
	C190.353333,179.185684 187.768295,177.013336 186.822296,172.703705 
z"/>
<path fill="#E72D22" opacity="1.000000" stroke="none" 
	d="
M87.969688,92.205437 
	C97.515343,92.291245 105.630745,96.041840 113.053223,102.376389 
	C120.314934,95.501862 129.044525,92.599686 138.607269,92.876846 
	C138.319763,100.651878 138.161423,107.817589 138.003082,114.983307 
	C137.485809,115.118958 136.968552,115.254616 136.100891,115.100998 
	C135.174454,115.167595 134.598404,115.523476 134.022369,115.879364 
	C126.928352,119.427841 124.424072,125.285812 124.883530,132.999908 
	C125.209747,138.476990 125.029610,143.998917 124.811630,149.490356 
	C124.458939,158.375153 121.024406,162.068359 113.447250,162.096222 
	C105.176949,162.126633 101.524445,158.381638 101.209496,149.178513 
	C100.998711,143.018967 101.123741,136.848572 101.047112,130.683670 
	C100.942467,122.263321 97.653793,117.986137 89.414307,115.194519 
	C89.541824,114.847252 89.727928,114.819069 89.835785,114.712029 
	C89.931595,114.616936 90.021347,114.398560 89.975777,114.295822 
	C89.331894,112.844421 88.149849,111.423424 88.093002,109.956505 
	C87.863953,104.046768 87.980682,98.123627 87.969688,92.205437 
z"/>
<path fill="#4BAD39" opacity="1.000000" stroke="none" 
	d="
M178.874664,157.961258 
	C177.963974,163.769760 174.097565,162.251099 171.104080,160.576492 
	C160.904404,154.870560 155.623657,145.979996 155.159042,134.250702 
	C155.034988,131.118668 155.316299,127.803123 154.380157,124.904953 
	C152.322037,118.533279 147.271744,115.623680 140.397049,114.464409 
	C139.960114,106.950256 139.904831,99.981918 139.849533,93.013588 
	C141.895935,92.793671 144.001648,92.146133 145.979462,92.420532 
	C164.036026,94.925751 177.257904,108.942268 178.669250,127.951736 
	C178.215698,132.767807 177.938492,136.865158 178.040482,140.953064 
	C178.157181,145.630066 178.610886,150.298660 178.918167,154.970917 
	C178.973389,155.432678 179.028610,155.894440 178.841980,156.777390 
	C178.541367,157.294678 178.410248,157.440842 178.436203,157.478348 
	C178.558838,157.655594 178.724396,157.803131 178.874664,157.961258 
z"/>
<path fill="#F8AF2A" opacity="1.000000" stroke="none" 
	d="
M47.132805,128.052460 
	C47.244858,109.245483 64.415298,94.015373 77.215546,93.455620 
	C79.872177,93.339447 82.516434,92.940269 85.560074,93.281914 
	C85.970520,100.881493 85.987282,107.870689 86.004051,114.859879 
	C74.759888,116.619164 70.799179,121.107285 70.911705,132.471664 
	C71.033340,144.756500 65.732361,153.799545 55.017593,159.607117 
	C52.414394,161.018097 49.380222,162.230286 47.429016,157.989197 
	C47.796997,151.911179 48.040016,146.503281 47.955040,141.100525 
	C47.886585,136.747940 47.421768,132.401581 47.132805,128.052460 
z"/>
<path fill="#E72E22" opacity="1.000000" stroke="none" 
	d="
M103.024689,77.217598 
	C106.582771,72.326752 111.171234,70.734138 116.418747,72.445076 
	C120.596092,73.807076 123.854637,76.651100 124.383026,81.466164 
	C125.031029,87.371254 122.945946,91.551353 118.358765,93.944580 
	C114.015511,96.210548 108.446419,95.477669 104.872993,92.169876 
	C100.952705,88.541008 100.263512,83.608658 103.024689,77.217598 
z"/>
<path fill="#F8AF2A" opacity="1.000000" stroke="none" 
	d="
M55.386986,72.311493 
	C58.391964,72.420822 61.222702,72.131111 63.653164,72.983185 
	C68.306076,74.614395 71.112968,79.723320 70.653465,84.485039 
	C70.161201,89.586182 66.242516,94.082047 61.478683,95.011139 
	C56.192894,96.042023 51.213467,93.893295 48.651371,89.475883 
	C44.868427,82.953560 47.391438,76.212532 55.386986,72.311493 
z"/>
<path fill="#4AAC38" opacity="1.000000" stroke="none" 
	d="
M156.880249,78.085388 
	C159.987015,72.899513 164.415207,71.075142 169.805084,72.100433 
	C174.638748,73.019920 177.737000,76.260399 178.845261,81.023041 
	C179.968658,85.850647 178.233978,89.879295 174.401962,92.919678 
	C170.517487,96.001701 164.496933,96.006073 160.436432,93.092148 
	C155.774490,89.746620 154.583359,85.053017 156.880249,78.085388 
z"/>
<path fill="#3677BC" opacity="1.000000" stroke="none" 
	d="
M88.396759,185.933548 
	C88.488060,183.176239 88.541389,180.862000 88.706078,178.555740 
	C88.734711,178.154846 89.233612,177.787552 90.015312,176.725266 
	C92.497177,179.803497 94.806419,182.667648 97.587135,186.116547 
	C97.859406,182.880020 98.086876,180.175949 98.314346,177.471878 
	C98.951248,177.467010 99.588142,177.462143 100.225044,177.457275 
	C101.897072,182.359192 100.645790,187.554169 100.969688,192.591232 
	C100.530685,192.917786 100.091690,193.244354 99.652687,193.570923 
	C97.255104,190.863983 94.857513,188.157028 92.195305,185.151291 
	C91.709480,187.962082 91.255539,190.588409 90.801598,193.214722 
	C90.181358,193.202332 89.561119,193.189941 88.940880,193.177536 
	C88.759430,190.911469 88.577980,188.645401 88.396759,185.933548 
z"/>
<path fill="#3576BB" opacity="1.000000" stroke="none" 
	d="
M123.893784,187.644806 
	C123.897743,186.487000 123.897743,185.718094 123.897743,184.949188 
	C123.606033,184.780121 123.314323,184.611053 123.022614,184.441986 
	C122.336662,185.725113 121.650711,187.008224 120.837257,188.529831 
	C118.825668,186.852570 117.638443,185.862671 115.997833,184.494736 
	C115.997833,186.362259 116.056641,187.789230 115.980003,189.208878 
	C115.913612,190.438797 115.693634,191.660431 114.825836,192.890991 
	C111.831131,187.928253 113.238625,182.634857 113.110741,177.478989 
	C113.523354,177.250259 113.935966,177.021515 114.348579,176.792770 
	C116.110161,178.733307 117.871742,180.673859 119.900475,182.908707 
	C121.582428,180.994049 123.345963,178.986542 125.170769,176.909271 
	C127.672707,180.367004 127.709740,189.802185 124.756172,194.229279 
	C124.377396,191.520477 124.133606,189.777084 123.893784,187.644806 
z"/>
<path fill="#3978BB" opacity="1.000000" stroke="none" 
	d="
M56.250427,190.167923 
	C52.961575,193.717575 49.383743,194.317154 45.711575,191.931732 
	C42.477364,189.830780 41.376511,186.553452 42.403885,182.783371 
	C43.658913,178.177841 48.116730,175.715469 52.462536,177.096848 
	C57.415882,178.671326 59.039749,183.810471 56.250427,190.167923 
M51.908413,180.343674 
	C47.278637,180.027924 44.121998,182.715958 45.470348,186.185181 
	C46.076668,187.745209 47.912785,189.450653 49.486317,189.815308 
	C50.759007,190.110245 53.658501,188.623764 53.758148,187.702682 
	C54.000610,185.461472 53.034657,183.089523 51.908413,180.343674 
z"/>
<path fill="#3C7ABC" opacity="1.000000" stroke="none" 
	d="
M171.633240,178.969421 
	C176.906403,175.402573 180.106384,175.947998 182.225922,180.772598 
	C179.471375,180.490753 176.873322,180.224915 174.275284,179.959076 
	C174.134964,180.582352 173.994659,181.205627 173.854340,181.828903 
	C175.230743,182.383331 176.578537,183.028580 177.989563,183.473099 
	C180.835983,184.369781 183.739258,185.492569 182.932861,189.138245 
	C182.080933,192.989761 178.807083,193.739334 175.455200,193.084747 
	C173.558136,192.714264 171.837296,191.441422 170.037094,190.574997 
	C170.167953,190.097351 170.298813,189.619690 170.429672,189.142029 
	C173.540100,189.374847 176.650528,189.607666 180.710281,189.911545 
	C178.215881,184.447952 168.608459,187.459122 171.633240,178.969421 
z"/>
<path fill="#3B79BD" opacity="1.000000" stroke="none" 
	d="
M79.346344,190.015808 
	C81.657753,190.349655 83.579880,190.580475 85.501999,190.811295 
	C85.475243,191.525497 85.448486,192.239685 85.421730,192.953873 
	C82.126762,193.112122 78.831787,193.270370 75.031685,193.452866 
	C75.031685,189.468704 74.876839,186.328232 75.087372,183.212448 
	C75.222557,181.211899 75.520065,177.761627 76.396759,177.540009 
	C79.269547,176.813721 82.440590,177.267227 85.496986,177.267227 
	C85.528648,177.975235 85.560303,178.683228 85.591965,179.391235 
	C84.310051,179.638840 82.983818,179.755737 81.758812,180.171188 
	C80.556313,180.578979 79.456711,181.290207 78.311951,181.868256 
	C79.337433,182.411514 80.326721,183.045624 81.398499,183.472672 
	C82.485970,183.905960 83.654900,184.134796 84.788155,184.453186 
	C84.788437,184.920334 84.788712,185.387482 84.788994,185.854630 
	C83.381660,186.162003 81.987251,186.568878 80.564003,186.753677 
	C78.382721,187.036880 77.485870,187.836716 79.346344,190.015808 
z"/>
<path fill="#3877BC" opacity="1.000000" stroke="none" 
	d="
M165.846558,180.443054 
	C168.118164,186.309570 167.130905,190.190323 163.124115,192.361435 
	C158.120956,195.072464 155.017456,193.310684 154.998520,187.746658 
	C154.993469,186.261444 154.848038,184.757172 155.034012,183.295609 
	C155.289932,181.284454 155.564194,177.701599 156.243210,177.601883 
	C158.659622,177.247025 161.271286,177.988266 163.762833,178.527802 
	C164.463791,178.679596 165.006500,179.562210 165.846558,180.443054 
M162.963516,188.455917 
	C165.144348,182.983765 163.733704,180.607117 158.394394,180.719131 
	C158.394394,183.773712 158.394394,186.816467 158.394394,190.515732 
	C160.057449,189.892487 161.217239,189.457840 162.963516,188.455917 
z"/>
<path fill="#3F7BBE" opacity="1.000000" stroke="none" 
	d="
M72.408920,183.533936 
	C70.229996,185.477386 68.171448,187.069931 65.241669,189.336456 
	C65.143150,189.742004 64.718063,191.491867 64.174614,193.728973 
	C62.083248,191.157974 60.877621,178.838028 62.523289,177.963577 
	C64.214287,177.065048 67.086479,176.520676 68.474388,177.381332 
	C70.316780,178.523834 71.221611,181.178253 72.408920,183.533936 
z"/>
<path fill="#3274BB" opacity="1.000000" stroke="none" 
	d="
M147.734940,191.138367 
	C146.096985,189.147217 144.459045,187.156052 142.446716,184.709793 
	C141.989777,187.950775 141.616501,190.598389 141.243210,193.245987 
	C140.696869,193.193237 140.150528,193.140503 139.604187,193.087753 
	C139.604187,187.863770 139.604187,182.639801 139.604187,177.415817 
	C140.003357,177.237366 140.402512,177.058914 140.801682,176.880463 
	C143.011353,179.864044 145.221039,182.847626 148.017517,186.192886 
	C148.314529,188.082504 148.024734,189.610428 147.734940,191.138367 
z"/>
<path fill="#3977BB" opacity="1.000000" stroke="none" 
	d="
M147.865875,191.504761 
	C148.024734,189.610428 148.314529,188.082504 148.345337,186.302795 
	C148.235916,183.154465 148.385513,180.257919 148.535110,177.361374 
	C149.395615,177.387131 150.256134,177.412888 151.116638,177.438629 
	C151.116638,182.371063 151.116638,187.303482 151.116638,192.235916 
	C150.076706,192.114319 149.036758,191.992737 147.865875,191.504761 
z"/>
<path fill="#E71001" opacity="1.000000" stroke="none" 
	d="
M86.351067,114.947113 
	C85.987282,107.870689 85.970520,100.881493 85.900055,93.425903 
	C86.346619,92.656586 86.846878,92.353653 87.658417,92.128082 
	C87.980682,98.123627 87.863953,104.046768 88.093002,109.956505 
	C88.149849,111.423424 89.331894,112.844421 89.975777,114.295822 
	C90.021347,114.398560 89.931595,114.616936 89.835785,114.712029 
	C89.727928,114.819069 89.541824,114.847252 89.111267,115.002174 
	C88.121201,115.074524 87.409637,115.054436 86.351067,114.947113 
z"/>
<path fill="#3273B8" opacity="1.000000" stroke="none" 
	d="
M134.006378,177.406464 
	C134.695694,182.684128 134.979538,187.809219 135.308701,193.752457 
	C131.320145,190.958954 130.968445,181.107468 134.006378,177.406464 
z"/>
<path fill="#E61000" opacity="1.000000" stroke="none" 
	d="
M139.667328,92.995750 
	C139.904831,99.981918 139.960114,106.950256 140.010956,114.376045 
	C139.562637,114.918243 139.118759,115.002975 138.338989,115.035507 
	C138.161423,107.817589 138.319763,100.651878 138.800446,93.205551 
	C139.122787,92.924950 139.485107,92.977913 139.667328,92.995750 
z"/>
<path fill="#F6AB00" opacity="1.000000" stroke="none" 
	d="
M47.067863,128.513702 
	C47.421768,132.401581 47.886585,136.747940 47.955040,141.100525 
	C48.040016,146.503281 47.796997,151.911179 47.425068,157.623840 
	C47.103962,148.278854 47.053440,138.626907 47.067863,128.513702 
z"/>
<path fill="#36A814" opacity="1.000000" stroke="none" 
	d="
M178.985870,154.508453 
	C178.610886,150.298660 178.157181,145.630066 178.040482,140.953064 
	C177.938492,136.865158 178.215698,132.767807 178.595734,128.365814 
	C178.928574,136.719986 178.991089,145.382996 178.985870,154.508453 
z"/>
<path fill="#E61000" opacity="1.000000" stroke="none" 
	d="
M134.363464,115.861420 
	C134.598404,115.523476 135.174454,115.167595 135.837418,115.047791 
	C135.517746,115.470413 135.111145,115.656952 134.363464,115.861420 
z"/>
<path fill="#36A814" opacity="1.000000" stroke="none" 
	d="
M178.938690,157.731033 
	C178.724396,157.803131 178.558838,157.655594 178.436203,157.478348 
	C178.410248,157.440842 178.541367,157.294678 178.749466,157.116455 
	C178.898819,157.034317 179.002716,157.500809 178.938690,157.731033 
z"/>
<path fill="#F4F7FA" opacity="1.000000" stroke="none" 
	d="
M52.231911,180.556946 
	C53.034657,183.089523 54.000610,185.461472 53.758148,187.702682 
	C53.658501,188.623764 50.759007,190.110245 49.486317,189.815308 
	C47.912785,189.450653 46.076668,187.745209 45.470348,186.185181 
	C44.121998,182.715958 47.278637,180.027924 52.231911,180.556946 
z"/>
<path fill="#F1F6FA" opacity="1.000000" stroke="none" 
	d="
M162.670273,188.739563 
	C161.217239,189.457840 160.057449,189.892487 158.394394,190.515732 
	C158.394394,186.816467 158.394394,183.773712 158.394394,180.719131 
	C163.733704,180.607117 165.144348,182.983765 162.670273,188.739563 
z"/>
</svg>