<svg version="1.1" id="Layer_1" xmlns="http://www.w3.org/2000/svg" xmlns:xlink="http://www.w3.org/1999/xlink" x="0px" y="0px"
	 width="100%" viewBox="0 0 820 707" enable-background="new 0 0 820 707" xml:space="preserve">
<path fill="#000000" opacity="1.000000" stroke="none" 
	d="
M821.000000,272.000000 
	C821.000000,417.666656 821.000000,562.833313 821.000000,708.000000 
	C547.666687,708.000000 274.333344,708.000000 1.000000,708.000000 
	C1.000000,472.333344 1.000000,236.666672 1.000000,1.000000 
	C274.333344,1.000000 547.666687,1.000000 821.000000,1.000000 
	C821.000000,91.166664 821.000000,181.333328 821.000000,272.000000 
M768.073914,606.544434 
	C768.757935,604.893433 769.351074,603.197693 770.139893,601.598328 
	C779.265442,583.095154 786.397095,563.838562 792.474915,544.133972 
	C802.312500,512.240295 808.370728,479.572235 809.676147,446.349274 
	C810.637512,421.880951 809.602783,397.221497 807.662964,372.789673 
	C806.259277,355.110291 802.803711,337.453003 798.697876,320.157440 
	C789.265991,280.426666 774.664734,242.670120 754.182739,207.137955 
	C738.119568,179.271637 719.277466,153.549728 697.369873,130.174576 
	C686.337402,118.403053 673.891846,107.909737 661.696716,97.284454 
	C641.750549,79.905930 619.401672,65.990860 596.105652,53.628544 
	C570.204712,39.883965 543.110779,28.991158 514.762207,21.407166 
	C489.109924,14.544475 463.039612,9.353125 436.523682,8.258811 
	C414.642487,7.355772 392.634918,8.022646 370.750580,9.220891 
	C356.589844,9.996240 342.501678,12.691491 328.465973,15.035107 
	C295.926361,20.468397 264.779633,30.706263 235.256516,45.178417 
	C216.373856,54.434654 198.023148,65.029907 180.361221,76.457924 
	C158.544022,90.574577 138.320175,106.962082 121.026207,126.557587 
	C109.592873,139.512497 98.114708,152.480927 87.528839,166.120270 
	C60.733856,200.644211 40.866253,239.070999 27.248976,280.463409 
	C20.445795,301.143066 15.500955,322.534363 11.185465,343.900665 
	C7.659342,361.358734 4.972027,379.208069 4.320134,396.972260 
	C3.368120,422.914856 2.489312,449.043030 7.049804,474.831635 
	C10.370045,493.606873 13.711598,512.411255 18.059191,530.964600 
	C25.698921,563.567200 38.614498,594.192444 54.814426,623.455750 
	C60.536564,633.792053 69.452339,639.373535 81.073814,639.899963 
	C93.579514,640.466492 103.486282,635.104553 109.753387,624.218201 
	C116.462181,612.564697 115.151909,600.717834 109.502571,588.926941 
	C103.846611,577.122192 97.950386,565.391296 93.092743,553.254395 
	C84.224060,531.095886 77.405380,508.266602 73.842339,484.598663 
	C71.674583,470.199097 68.816277,455.778442 68.256905,441.290466 
	C67.376442,418.486237 67.517975,395.628815 70.872566,372.877869 
	C73.806648,352.978760 77.999123,333.437866 83.890633,314.221039 
	C92.107529,287.419220 103.657364,262.184448 117.920380,238.038071 
	C132.117706,214.002899 149.280502,192.321487 168.477371,172.257507 
	C177.226044,163.113647 187.074982,154.975174 196.785233,146.809189 
	C213.485703,132.764679 231.661621,120.854820 250.900177,110.541496 
	C273.173065,98.601532 296.347687,88.693375 320.888580,82.803574 
	C340.064209,78.201439 359.580505,73.999237 379.170685,72.427895 
	C399.115051,70.828148 419.362213,72.140953 439.424072,73.187843 
	C451.633728,73.824989 463.928314,75.546303 475.863678,78.215988 
	C510.779022,86.025810 543.976990,98.400215 574.821045,116.894028 
	C604.205933,134.512939 631.096436,155.145645 653.546387,181.112198 
	C664.587463,193.882767 675.215637,207.090027 685.061035,220.796234 
	C700.580811,242.402161 713.234253,265.757294 721.942627,290.924957 
	C728.159851,308.893280 733.830688,327.159332 738.046936,345.679199 
	C741.886902,362.546478 744.868896,379.869812 745.650818,397.109039 
	C746.721436,420.711395 746.849854,444.429596 743.166748,468.028992 
	C740.065735,487.899384 735.905579,507.432129 730.153076,526.692322 
	C722.532532,552.206543 711.583984,576.271973 698.734131,599.469604 
	C690.885620,613.638428 693.041504,631.401367 705.768555,642.437866 
	C716.846924,652.044617 736.009949,652.326233 746.182739,642.185608 
	C756.085693,632.313904 761.436340,619.424438 768.073914,606.544434 
M490.821228,393.069275 
	C497.751648,391.388824 504.682037,389.708405 512.347046,387.849854 
	C512.347046,357.661713 512.347046,327.003998 512.347046,296.116241 
	C493.381195,295.147339 475.273773,298.709503 457.616699,305.641876 
	C439.921753,312.589142 424.179535,322.531250 409.681641,335.492432 
	C381.020813,308.058258 346.992035,294.066650 307.721344,293.070770 
	C307.385040,293.753204 307.123627,294.037994 307.119904,294.326080 
	C306.734741,323.909332 306.395477,353.493195 305.965271,383.075714 
	C305.917053,386.392334 307.957153,386.707336 310.399353,387.007690 
	C330.501465,389.480133 345.568665,399.350433 355.103516,417.407745 
	C360.858459,428.306549 361.711975,439.611725 361.401917,451.994843 
	C360.667542,481.323700 359.354004,510.785583 363.087372,540.043091 
	C364.821472,553.632935 370.488556,565.027527 383.726868,571.357910 
	C393.428009,575.996948 403.693085,576.396973 414.083618,575.973572 
	C433.115814,575.198120 443.803741,566.998596 450.102356,550.184875 
	C455.026672,537.039795 453.994690,523.228394 454.748810,509.739166 
	C455.999664,487.364075 455.667480,464.900421 455.996490,442.473969 
	C456.020935,440.808411 455.869080,439.129242 456.032562,437.479492 
	C456.240692,435.379333 456.389801,433.198914 457.077026,431.232269 
	C463.020721,414.223297 473.616882,401.224365 490.821228,393.069275 
M665.999939,438.421082 
	C665.222900,430.726807 665.267822,422.841125 663.528503,415.370911 
	C655.430237,380.589905 637.992859,351.438812 610.198486,328.618622 
	C593.506104,314.913544 574.759644,305.265503 553.907776,300.167145 
	C542.687866,297.423859 531.038208,296.438324 518.726318,294.526764 
	C518.726318,326.490540 518.726318,357.524811 518.726318,387.290771 
	C527.397095,390.448547 536.250793,392.643585 544.105957,396.749146 
	C560.189331,405.155273 569.464783,419.236694 571.783508,437.033569 
	C573.275879,448.487946 572.148865,460.261108 573.153625,471.808044 
	C574.060120,482.224976 575.213806,492.834412 578.108582,502.822754 
	C585.711060,529.054321 602.011597,549.612000 623.110046,566.410400 
	C631.269653,572.906982 640.282593,577.361938 651.514587,577.278381 
	C659.702881,577.217590 664.558777,570.547302 664.963013,564.346436 
	C665.436584,557.082092 665.827393,549.804810 665.968506,542.527588 
	C666.387573,520.923096 666.850220,499.316650 666.930298,477.709625 
	C666.977722,464.934662 666.333313,452.157104 665.999939,438.421082 
M242.999786,476.438538 
	C243.666473,464.583710 244.703812,452.735046 244.902176,440.872375 
	C245.129044,427.305023 250.168854,415.782440 258.807404,405.813812 
	C268.763275,394.325104 281.609802,388.118713 296.829193,387.004425 
	C299.725098,386.792450 301.039795,385.641937 301.071533,382.417786 
	C301.257935,363.488342 301.730621,344.561920 301.974304,325.632751 
	C302.112976,314.862183 301.999390,304.088348 301.999390,291.953613 
	C291.250366,293.363281 281.175232,294.389130 271.205475,296.048157 
	C242.676376,300.795624 218.464737,314.405579 197.729599,333.994995 
	C183.750854,347.201385 172.801178,362.878296 164.736282,380.536713 
	C157.940445,395.416473 152.755066,410.766937 151.162704,427.012299 
	C150.017868,438.692169 150.151855,450.513733 150.043594,462.275085 
	C149.879471,480.106201 150.001404,497.940002 149.998367,515.772644 
	C149.998154,517.105530 149.955521,518.438416 149.957657,519.771301 
	C149.979034,533.114014 149.644440,546.472900 150.241043,559.790039 
	C150.431137,564.033691 154.097748,567.350037 158.743149,567.928162 
	C167.961502,569.075317 176.799927,567.037842 184.750366,562.575623 
	C199.025055,554.563782 211.000748,543.741089 220.849640,530.634338 
	C232.770432,514.770264 240.977631,497.347626 242.999786,476.438538 
M204.890091,210.401031 
	C185.611145,208.535706 170.097595,215.860413 160.259003,232.031204 
	C149.083130,250.400024 149.521698,269.258942 162.620834,287.321777 
	C172.327774,300.707062 191.706116,308.592346 209.273865,304.544037 
	C230.807556,299.581848 248.510849,277.385773 245.211182,252.061478 
	C243.456680,238.595871 237.375458,228.173798 227.272308,220.039780 
	C221.116531,215.083786 213.988724,211.222733 204.890091,210.401031 
M643.953186,220.463562 
	C635.337158,215.465454 625.806030,213.557129 616.261475,215.209320 
	C588.199768,220.066788 572.720093,245.564346 576.794800,270.715546 
	C580.713440,294.903381 604.238403,314.426758 631.670654,309.194824 
	C650.841370,305.538513 667.622620,286.961121 668.845825,267.085297 
	C670.073425,247.137512 662.151184,231.300003 643.953186,220.463562 
M365.411194,271.892761 
	C366.242981,274.168915 366.985962,276.482178 367.920105,278.715515 
	C378.450104,303.889648 399.251251,310.499481 420.706329,306.440948 
	C446.376068,301.585205 460.187683,274.173950 455.750732,250.890701 
	C451.586731,229.039993 431.558807,211.699173 408.764801,212.915787 
	C391.289429,213.848526 378.612366,222.046463 370.085541,236.890381 
	C363.969666,247.537170 362.662506,259.100922 365.411194,271.892761 
M449.000305,691.415894 
	C449.000366,692.915771 449.173523,694.439941 448.967224,695.910828 
	C448.404785,699.920715 450.405365,702.092773 454.078613,701.867737 
	C457.482208,701.659180 460.295502,700.024292 460.043030,695.653381 
	C459.831970,691.999512 460.007050,688.323425 460.006927,684.657166 
	C460.006439,670.503296 460.088348,656.348206 459.894775,642.196960 
	C459.870972,640.457825 458.636078,637.490723 457.505005,637.250977 
	C454.450409,636.603577 451.249084,636.634155 448.909546,640.027710 
	C444.014008,647.128845 438.694366,653.937561 433.302673,661.197876 
	C428.094910,654.085144 423.017639,647.366516 418.202454,640.464966 
	C416.346680,637.805115 414.811890,635.667236 410.948364,636.459290 
	C406.394775,637.392883 406.048584,640.669434 406.033905,644.119934 
	C405.960938,661.284546 406.048065,678.449829 405.963165,695.614319 
	C405.944580,699.363220 407.413300,700.873474 411.216095,701.093994 
	C415.480438,701.341309 416.814392,699.079224 416.968628,695.576599 
	C417.390320,686.001343 417.659607,676.419373 418.008057,666.840759 
	C418.050140,665.683472 418.208160,664.530457 418.367859,662.761780 
	C421.393616,667.311584 423.832550,671.299072 426.591919,675.050903 
	C430.428619,680.267395 434.271667,680.543152 438.709656,675.673462 
	C441.933685,672.135742 444.611115,668.099915 447.532257,664.286194 
	C448.021606,664.326111 448.510956,664.365967 449.000305,664.405884 
	C449.000305,673.082520 449.000305,681.759216 449.000305,691.415894 
M135.454285,684.974060 
	C145.214310,701.634094 169.990753,702.270386 181.532486,689.861877 
	C195.944199,674.368042 194.602509,649.930664 177.535873,637.225525 
	C165.652039,628.378723 148.578445,630.820557 138.879807,640.744019 
	C127.511009,652.376282 127.013222,671.806702 135.454285,684.974060 
M535.991455,688.488770 
	C539.119934,692.614319 542.048157,696.919312 545.492554,700.761719 
	C546.599670,701.996765 549.221741,702.755188 550.878601,702.413269 
	C553.481750,701.876038 555.431030,700.045715 555.050049,696.716187 
	C554.786987,694.416382 554.958252,692.060913 555.010254,689.732056 
	C555.327942,675.503174 555.786560,661.275696 555.889404,647.045532 
	C555.907898,644.477600 555.234070,641.158447 553.570740,639.496155 
	C550.948425,636.875488 545.468933,639.427612 545.082764,643.337341 
	C544.437683,649.869202 544.416260,656.460144 543.968872,663.015076 
	C543.703491,666.903748 543.125244,670.771118 542.598206,675.441101 
	C536.987244,667.246948 531.972656,659.781006 526.800720,652.425598 
	C523.825989,648.194885 520.839172,643.919739 517.350647,640.131592 
	C516.123047,638.798523 513.211731,638.103577 511.393036,638.522766 
	C509.998505,638.844116 508.194183,641.341797 508.141632,642.923706 
	C507.580872,659.808533 507.303009,676.703247 507.046295,693.596863 
	C507.020081,695.322510 507.830780,697.048279 507.917969,698.790771 
	C508.140259,703.233582 511.614594,702.342224 513.770752,701.789062 
	C515.431274,701.363159 517.671448,699.147339 517.818848,697.557373 
	C518.547546,689.692261 518.600830,681.767029 519.037476,673.870972 
	C519.177307,671.343323 519.762207,668.840271 520.273071,665.471313 
	C525.753418,673.600281 530.601746,680.791687 535.991455,688.488770 
M347.996155,645.417175 
	C347.664246,647.661194 347.084930,649.901001 347.046143,652.150085 
	C346.922668,659.304260 347.000427,666.461853 347.000427,674.700562 
	C340.833984,665.801880 335.527344,657.934692 329.989960,650.233398 
	C326.775574,645.762939 323.406403,641.354370 319.631348,637.368408 
	C318.591736,636.270691 315.690765,636.256348 313.929352,636.754456 
	C312.701385,637.101746 311.138397,639.161926 311.125305,640.470886 
	C310.942505,658.787598 310.892212,677.108643 311.197083,695.422058 
	C311.222870,696.971252 313.834198,699.487671 315.562897,699.801941 
	C320.101654,700.626770 321.854614,698.572693 322.004578,693.676453 
	C322.303711,683.909424 322.632111,674.143372 322.979218,663.426453 
	C324.814301,665.352661 325.988861,666.305603 326.816803,667.498962 
	C333.333984,676.892395 339.881348,686.267822 346.201508,695.793396 
	C348.285797,698.934814 350.175446,701.097351 354.535004,700.278625 
	C359.627136,699.322266 358.768860,695.108765 358.826935,692.357483 
	C359.174561,675.878174 359.000732,659.387695 358.997772,642.901001 
	C358.997009,638.693970 357.215851,636.547302 352.685211,636.959045 
	C347.577240,637.423218 348.037048,641.059509 347.996155,645.417175 
M582.514404,638.000183 
	C580.516846,638.002441 578.480652,637.758728 576.530762,638.064697 
	C573.620056,638.521545 571.040833,639.415833 570.951904,643.289795 
	C570.793274,650.201599 570.152100,657.103333 570.035889,664.014771 
	C569.870850,673.833374 569.814087,683.661377 570.054993,693.476929 
	C570.271729,702.308594 571.138672,703.017700 579.337830,703.000732 
	C582.167725,702.994873 584.998047,703.029724 587.827515,702.994629 
	C608.120361,702.743164 621.285645,683.562378 617.622070,664.453186 
	C614.237854,646.801208 601.774597,637.838745 582.514404,638.000183 
M637.524902,642.984985 
	C631.944885,648.408264 630.485840,654.852478 633.006042,662.138306 
	C635.153992,668.348022 640.389160,670.953613 646.096252,673.000610 
	C652.392090,675.258667 658.707092,677.492493 664.867371,680.084717 
	C667.349670,681.129395 669.589783,683.892456 667.035278,686.120789 
	C664.032104,688.740479 660.117737,690.884644 656.255615,691.822266 
	C649.871399,693.372009 644.972168,688.744446 639.669250,686.138977 
	C636.777954,684.718445 634.115662,682.485107 631.211426,686.217468 
	C628.683533,689.466003 629.876221,692.957886 634.069824,696.669189 
	C644.461792,705.865784 662.330322,706.413513 673.091736,698.041260 
	C677.220154,694.829407 679.956360,686.598328 679.166870,681.381897 
	C677.638184,671.280579 670.036865,667.982239 661.986267,665.036682 
	C657.039246,663.226807 651.852661,662.002014 647.050659,659.886047 
	C642.774475,658.001709 642.824158,654.670105 646.622314,651.777954 
	C651.059875,648.399170 655.763672,648.017639 660.786255,650.311951 
	C663.696533,651.641357 666.694580,652.787048 669.560425,654.203125 
	C672.547913,655.679260 674.466553,654.967407 676.421509,652.236206 
	C678.743774,648.991760 676.824707,646.556641 675.067078,644.707703 
	C667.171570,636.402100 645.403992,634.965942 637.524902,642.984985 
M292.087677,635.001770 
	C283.425690,635.001343 274.763641,634.984253 266.101685,635.006287 
	C260.249634,635.021118 259.027527,636.278748 259.004272,642.251343 
	C258.979004,648.747620 258.976776,655.244080 258.978119,661.740417 
	C258.980469,673.224548 258.929504,684.709656 259.118561,696.190796 
	C259.134216,697.140198 260.765015,698.829834 261.712891,698.879272 
	C271.773590,699.403503 281.846497,699.824219 291.919373,699.919678 
	C295.868347,699.957214 298.470032,698.373657 298.151154,693.351868 
	C297.851379,688.631042 295.146545,688.200500 291.662659,687.992371 
	C284.936615,687.590515 278.213348,687.141968 271.110382,686.688660 
	C270.654175,682.307922 270.192169,677.871216 269.684814,672.999084 
	C277.046509,672.999084 283.689148,673.253784 290.289703,672.839294 
	C292.197052,672.719604 294.593475,671.051086 295.613861,669.386658 
	C296.308563,668.253418 295.344269,665.714905 294.520020,664.114746 
	C292.417969,660.034180 288.211426,660.276306 284.495819,660.064331 
	C279.807495,659.796814 275.092377,659.999756 270.970459,659.999756 
	C270.970459,655.371948 270.970459,651.307434 270.970459,646.999451 
	C278.340729,646.999451 285.145660,647.080566 291.947662,646.974426 
	C297.633850,646.885620 299.225189,644.708130 299.090088,639.221375 
	C298.974213,634.513733 294.667023,636.901245 292.087677,635.001770 
M247.990906,661.047058 
	C247.993484,657.408875 248.305222,653.738342 247.929672,650.139648 
	C247.289780,644.007996 240.559021,635.852051 235.035156,635.148376 
	C228.375763,634.300049 221.591812,633.941101 214.881866,634.120789 
	C208.663620,634.287292 208.008316,635.497070 208.000137,641.983337 
	C207.997406,644.145020 208.027817,646.307495 207.981705,648.468262 
	C207.664185,663.350403 207.211243,678.231262 207.101883,693.114746 
	C207.079865,696.111633 208.221878,699.053101 212.408691,699.049255 
	C216.380844,699.045654 218.870880,696.833313 218.970551,692.350464 
	C219.091202,686.923340 218.999161,681.491394 218.999161,676.128357 
	C230.981934,675.261353 242.823608,675.379700 247.990906,661.047058 
M492.007874,640.759644 
	C489.857025,639.507812 487.783539,637.517700 485.526276,637.281067 
	C484.171509,637.138977 481.797058,639.469116 481.185059,641.160217 
	C480.215668,643.838867 480.014618,646.917786 480.054749,649.819458 
	C480.274536,665.716492 480.780731,681.610168 480.914917,697.507385 
	C480.946014,701.195496 482.731720,701.889038 485.682861,702.016541 
	C489.011261,702.160400 491.604919,701.090942 491.933990,697.501221 
	C492.474030,691.609497 492.864655,685.687988 492.947632,679.773865 
	C493.104095,668.619141 493.030945,657.460510 492.960388,646.304138 
	C492.950470,644.739502 492.416473,643.178223 492.007874,640.759644 
z"/>
<path fill="#2A78CD" opacity="1.000000" stroke="none" 
	d="
M767.955933,606.909668 
	C761.436340,619.424438 756.085693,632.313904 746.182739,642.185608 
	C736.009949,652.326233 716.846924,652.044617 705.768555,642.437866 
	C693.041504,631.401367 690.885620,613.638428 698.734131,599.469604 
	C711.583984,576.271973 722.532532,552.206543 730.153076,526.692322 
	C735.905579,507.432129 740.065735,487.899384 743.166748,468.028992 
	C746.849854,444.429596 746.721436,420.711395 745.650818,397.109039 
	C744.868896,379.869812 741.886902,362.546478 738.046936,345.679199 
	C733.830688,327.159332 728.159851,308.893280 721.942627,290.924957 
	C713.234253,265.757294 700.580811,242.402161 685.061035,220.796234 
	C675.215637,207.090027 664.587463,193.882767 653.546387,181.112198 
	C631.096436,155.145645 604.205933,134.512939 574.821045,116.894028 
	C543.976990,98.400215 510.779022,86.025810 475.863678,78.215988 
	C463.928314,75.546303 451.633728,73.824989 439.424072,73.187843 
	C419.362213,72.140953 399.115051,70.828148 379.170685,72.427895 
	C359.580505,73.999237 340.064209,78.201439 320.888580,82.803574 
	C296.347687,88.693375 273.173065,98.601532 250.900177,110.541496 
	C231.661621,120.854820 213.485703,132.764679 196.785233,146.809189 
	C187.074982,154.975174 177.226044,163.113647 168.477371,172.257507 
	C149.280502,192.321487 132.117706,214.002899 117.920380,238.038071 
	C103.657364,262.184448 92.107529,287.419220 83.890633,314.221039 
	C77.999123,333.437866 73.806648,352.978760 70.872566,372.877869 
	C67.517975,395.628815 67.376442,418.486237 68.256905,441.290466 
	C68.816277,455.778442 71.674583,470.199097 73.842339,484.598663 
	C77.405380,508.266602 84.224060,531.095886 93.092743,553.254395 
	C97.950386,565.391296 103.846611,577.122192 109.502571,588.926941 
	C115.151909,600.717834 116.462181,612.564697 109.753387,624.218201 
	C103.486282,635.104553 93.579514,640.466492 81.073814,639.899963 
	C69.452339,639.373535 60.536564,633.792053 54.814426,623.455750 
	C38.614498,594.192444 25.698921,563.567200 18.059191,530.964600 
	C13.711598,512.411255 10.370045,493.606873 7.049804,474.831635 
	C2.489312,449.043030 3.368120,422.914856 4.320134,396.972260 
	C4.972027,379.208069 7.659342,361.358734 11.185465,343.900665 
	C15.500955,322.534363 20.445795,301.143066 27.248976,280.463409 
	C40.866253,239.070999 60.733856,200.644211 87.528839,166.120270 
	C98.114708,152.480927 109.592873,139.512497 121.026207,126.557587 
	C138.320175,106.962082 158.544022,90.574577 180.361221,76.457924 
	C198.023148,65.029907 216.373856,54.434654 235.256516,45.178417 
	C264.779633,30.706263 295.926361,20.468397 328.465973,15.035107 
	C342.501678,12.691491 356.589844,9.996240 370.750580,9.220891 
	C392.634918,8.022646 414.642487,7.355772 436.523682,8.258811 
	C463.039612,9.353125 489.109924,14.544475 514.762207,21.407166 
	C543.110779,28.991158 570.204712,39.883965 596.105652,53.628544 
	C619.401672,65.990860 641.750549,79.905930 661.696716,97.284454 
	C673.891846,107.909737 686.337402,118.403053 697.369873,130.174576 
	C719.277466,153.549728 738.119568,179.271637 754.182739,207.137955 
	C774.664734,242.670120 789.265991,280.426666 798.697876,320.157440 
	C802.803711,337.453003 806.259277,355.110291 807.662964,372.789673 
	C809.602783,397.221497 810.637512,421.880951 809.676147,446.349274 
	C808.370728,479.572235 802.312500,512.240295 792.474915,544.133972 
	C786.397095,563.838562 779.265442,583.095154 770.139893,601.598328 
	C769.351074,603.197693 768.757935,604.893433 767.955933,606.909668 
z"/>
<path fill="#E82B1F" opacity="1.000000" stroke="none" 
	d="
M490.466797,393.237122 
	C473.616882,401.224365 463.020721,414.223297 457.077026,431.232269 
	C456.389801,433.198914 456.240692,435.379333 456.032562,437.479492 
	C455.869080,439.129242 456.020935,440.808411 455.996490,442.473969 
	C455.667480,464.900421 455.999664,487.364075 454.748810,509.739166 
	C453.994690,523.228394 455.026672,537.039795 450.102356,550.184875 
	C443.803741,566.998596 433.115814,575.198120 414.083618,575.973572 
	C403.693085,576.396973 393.428009,575.996948 383.726868,571.357910 
	C370.488556,565.027527 364.821472,553.632935 363.087372,540.043091 
	C359.354004,510.785583 360.667542,481.323700 361.401917,451.994843 
	C361.711975,439.611725 360.858459,428.306549 355.103516,417.407745 
	C345.568665,399.350433 330.501465,389.480133 310.399353,387.007690 
	C307.957153,386.707336 305.917053,386.392334 305.965271,383.075714 
	C306.395477,353.493195 306.734741,323.909332 307.119904,294.326080 
	C307.123627,294.037994 307.385040,293.753204 307.721344,293.070770 
	C346.992035,294.066650 381.020813,308.058258 409.681641,335.492432 
	C424.179535,322.531250 439.921753,312.589142 457.616699,305.641876 
	C475.273773,298.709503 493.381195,295.147339 512.347046,296.116241 
	C512.347046,327.003998 512.347046,357.661713 512.347046,387.849854 
	C504.682037,389.708405 497.751648,391.388824 490.466797,393.237122 
z"/>
<path fill="#49AC36" opacity="1.000000" stroke="none" 
	d="
M665.999939,438.900909 
	C666.333313,452.157104 666.977722,464.934662 666.930298,477.709625 
	C666.850220,499.316650 666.387573,520.923096 665.968506,542.527588 
	C665.827393,549.804810 665.436584,557.082092 664.963013,564.346436 
	C664.558777,570.547302 659.702881,577.217590 651.514587,577.278381 
	C640.282593,577.361938 631.269653,572.906982 623.110046,566.410400 
	C602.011597,549.612000 585.711060,529.054321 578.108582,502.822754 
	C575.213806,492.834412 574.060120,482.224976 573.153625,471.808044 
	C572.148865,460.261108 573.275879,448.487946 571.783508,437.033569 
	C569.464783,419.236694 560.189331,405.155273 544.105957,396.749146 
	C536.250793,392.643585 527.397095,390.448547 518.726318,387.290771 
	C518.726318,357.524811 518.726318,326.490540 518.726318,294.526764 
	C531.038208,296.438324 542.687866,297.423859 553.907776,300.167145 
	C574.759644,305.265503 593.506104,314.913544 610.198486,328.618622 
	C637.992859,351.438812 655.430237,380.589905 663.528503,415.370911 
	C665.267822,422.841125 665.222900,430.726807 665.999939,438.900909 
z"/>
<path fill="#F8AE28" opacity="1.000000" stroke="none" 
	d="
M242.999756,476.899658 
	C240.977631,497.347626 232.770432,514.770264 220.849640,530.634338 
	C211.000748,543.741089 199.025055,554.563782 184.750366,562.575623 
	C176.799927,567.037842 167.961502,569.075317 158.743149,567.928162 
	C154.097748,567.350037 150.431137,564.033691 150.241043,559.790039 
	C149.644440,546.472900 149.979034,533.114014 149.957657,519.771301 
	C149.955521,518.438416 149.998154,517.105530 149.998367,515.772644 
	C150.001404,497.940002 149.879471,480.106201 150.043594,462.275085 
	C150.151855,450.513733 150.017868,438.692169 151.162704,427.012299 
	C152.755066,410.766937 157.940445,395.416473 164.736282,380.536713 
	C172.801178,362.878296 183.750854,347.201385 197.729599,333.994995 
	C218.464737,314.405579 242.676376,300.795624 271.205475,296.048157 
	C281.175232,294.389130 291.250366,293.363281 301.999390,291.953613 
	C301.999390,304.088348 302.112976,314.862183 301.974304,325.632751 
	C301.730621,344.561920 301.257935,363.488342 301.071533,382.417786 
	C301.039795,385.641937 299.725098,386.792450 296.829193,387.004425 
	C281.609802,388.118713 268.763275,394.325104 258.807404,405.813812 
	C250.168854,415.782440 245.129044,427.305023 244.902176,440.872375 
	C244.703812,452.735046 243.666473,464.583710 242.999756,476.899658 
z"/>
<path fill="#F8AE28" opacity="1.000000" stroke="none" 
	d="
M205.258270,210.656769 
	C213.988724,211.222733 221.116531,215.083786 227.272308,220.039780 
	C237.375458,228.173798 243.456680,238.595871 245.211182,252.061478 
	C248.510849,277.385773 230.807556,299.581848 209.273865,304.544037 
	C191.706116,308.592346 172.327774,300.707062 162.620834,287.321777 
	C149.521698,269.258942 149.083130,250.400024 160.259003,232.031204 
	C170.097595,215.860413 185.611145,208.535706 205.258270,210.656769 
z"/>
<path fill="#49AC36" opacity="1.000000" stroke="none" 
	d="
M644.261719,220.675308 
	C662.151184,231.300003 670.073425,247.137512 668.845825,267.085297 
	C667.622620,286.961121 650.841370,305.538513 631.670654,309.194824 
	C604.238403,314.426758 580.713440,294.903381 576.794800,270.715546 
	C572.720093,245.564346 588.199768,220.066788 616.261475,215.209320 
	C625.806030,213.557129 635.337158,215.465454 644.261719,220.675308 
z"/>
<path fill="#E82B1F" opacity="1.000000" stroke="none" 
	d="
M365.242584,271.498505 
	C362.662506,259.100922 363.969666,247.537170 370.085541,236.890381 
	C378.612366,222.046463 391.289429,213.848526 408.764801,212.915787 
	C431.558807,211.699173 451.586731,229.039993 455.750732,250.890701 
	C460.187683,274.173950 446.376068,301.585205 420.706329,306.440948 
	C399.251251,310.499481 378.450104,303.889648 367.920105,278.715515 
	C366.985962,276.482178 366.242981,274.168915 365.242584,271.498505 
z"/>
<path fill="#F4F4F4" opacity="1.000000" stroke="none" 
	d="
M449.000305,690.925903 
	C449.000305,681.759216 449.000305,673.082520 449.000305,664.405884 
	C448.510956,664.365967 448.021606,664.326111 447.532257,664.286194 
	C444.611115,668.099915 441.933685,672.135742 438.709656,675.673462 
	C434.271667,680.543152 430.428619,680.267395 426.591919,675.050903 
	C423.832550,671.299072 421.393616,667.311584 418.367859,662.761780 
	C418.208160,664.530457 418.050140,665.683472 418.008057,666.840759 
	C417.659607,676.419373 417.390320,686.001343 416.968628,695.576599 
	C416.814392,699.079224 415.480438,701.341309 411.216095,701.093994 
	C407.413300,700.873474 405.944580,699.363220 405.963165,695.614319 
	C406.048065,678.449829 405.960938,661.284546 406.033905,644.119934 
	C406.048584,640.669434 406.394775,637.392883 410.948364,636.459290 
	C414.811890,635.667236 416.346680,637.805115 418.202454,640.464966 
	C423.017639,647.366516 428.094910,654.085144 433.302673,661.197876 
	C438.694366,653.937561 444.014008,647.128845 448.909546,640.027710 
	C451.249084,636.634155 454.450409,636.603577 457.505005,637.250977 
	C458.636078,637.490723 459.870972,640.457825 459.894775,642.196960 
	C460.088348,656.348206 460.006439,670.503296 460.006927,684.657166 
	C460.007050,688.323425 459.831970,691.999512 460.043030,695.653381 
	C460.295502,700.024292 457.482208,701.659180 454.078613,701.867737 
	C450.405365,702.092773 448.404785,699.920715 448.967224,695.910828 
	C449.173523,694.439941 449.000366,692.915771 449.000305,690.925903 
z"/>
<path fill="#F4F4F4" opacity="1.000000" stroke="none" 
	d="
M135.198151,684.695190 
	C127.013222,671.806702 127.511009,652.376282 138.879807,640.744019 
	C148.578445,630.820557 165.652039,628.378723 177.535873,637.225525 
	C194.602509,649.930664 195.944199,674.368042 181.532486,689.861877 
	C169.990753,702.270386 145.214310,701.634094 135.198151,684.695190 
M174.024109,677.533020 
	C182.764832,667.640564 178.711197,656.161560 171.369904,649.098328 
	C164.479736,642.469055 153.334930,643.692932 147.223495,651.387024 
	C139.850937,660.668762 140.897919,673.831604 148.897263,681.071228 
	C155.762222,687.284180 164.323929,689.737061 174.024109,677.533020 
z"/>
<path fill="#F4F4F4" opacity="1.000000" stroke="none" 
	d="
M535.720764,688.235962 
	C530.601746,680.791687 525.753418,673.600281 520.273071,665.471313 
	C519.762207,668.840271 519.177307,671.343323 519.037476,673.870972 
	C518.600830,681.767029 518.547546,689.692261 517.818848,697.557373 
	C517.671448,699.147339 515.431274,701.363159 513.770752,701.789062 
	C511.614594,702.342224 508.140259,703.233582 507.917969,698.790771 
	C507.830780,697.048279 507.020081,695.322510 507.046295,693.596863 
	C507.303009,676.703247 507.580872,659.808533 508.141632,642.923706 
	C508.194183,641.341797 509.998505,638.844116 511.393036,638.522766 
	C513.211731,638.103577 516.123047,638.798523 517.350647,640.131592 
	C520.839172,643.919739 523.825989,648.194885 526.800720,652.425598 
	C531.972656,659.781006 536.987244,667.246948 542.598206,675.441101 
	C543.125244,670.771118 543.703491,666.903748 543.968872,663.015076 
	C544.416260,656.460144 544.437683,649.869202 545.082764,643.337341 
	C545.468933,639.427612 550.948425,636.875488 553.570740,639.496155 
	C555.234070,641.158447 555.907898,644.477600 555.889404,647.045532 
	C555.786560,661.275696 555.327942,675.503174 555.010254,689.732056 
	C554.958252,692.060913 554.786987,694.416382 555.050049,696.716187 
	C555.431030,700.045715 553.481750,701.876038 550.878601,702.413269 
	C549.221741,702.755188 546.599670,701.996765 545.492554,700.761719 
	C542.048157,696.919312 539.119934,692.614319 535.720764,688.235962 
z"/>
<path fill="#F4F4F4" opacity="1.000000" stroke="none" 
	d="
M347.998199,644.967041 
	C348.037048,641.059509 347.577240,637.423218 352.685211,636.959045 
	C357.215851,636.547302 358.997009,638.693970 358.997772,642.901001 
	C359.000732,659.387695 359.174561,675.878174 358.826935,692.357483 
	C358.768860,695.108765 359.627136,699.322266 354.535004,700.278625 
	C350.175446,701.097351 348.285797,698.934814 346.201508,695.793396 
	C339.881348,686.267822 333.333984,676.892395 326.816803,667.498962 
	C325.988861,666.305603 324.814301,665.352661 322.979218,663.426453 
	C322.632111,674.143372 322.303711,683.909424 322.004578,693.676453 
	C321.854614,698.572693 320.101654,700.626770 315.562897,699.801941 
	C313.834198,699.487671 311.222870,696.971252 311.197083,695.422058 
	C310.892212,677.108643 310.942505,658.787598 311.125305,640.470886 
	C311.138397,639.161926 312.701385,637.101746 313.929352,636.754456 
	C315.690765,636.256348 318.591736,636.270691 319.631348,637.368408 
	C323.406403,641.354370 326.775574,645.762939 329.989960,650.233398 
	C335.527344,657.934692 340.833984,665.801880 347.000427,674.700562 
	C347.000427,666.461853 346.922668,659.304260 347.046143,652.150085 
	C347.084930,649.901001 347.664246,647.661194 347.998199,644.967041 
z"/>
<path fill="#F4F4F4" opacity="1.000000" stroke="none" 
	d="
M582.986694,638.000244 
	C601.774597,637.838745 614.237854,646.801208 617.622070,664.453186 
	C621.285645,683.562378 608.120361,702.743164 587.827515,702.994629 
	C584.998047,703.029724 582.167725,702.994873 579.337830,703.000732 
	C571.138672,703.017700 570.271729,702.308594 570.054993,693.476929 
	C569.814087,683.661377 569.870850,673.833374 570.035889,664.014771 
	C570.152100,657.103333 570.793274,650.201599 570.951904,643.289795 
	C571.040833,639.415833 573.620056,638.521545 576.530762,638.064697 
	C578.480652,637.758728 580.516846,638.002441 582.986694,638.000244 
M581.999329,682.453491 
	C581.999329,685.228943 581.999329,688.004456 581.999329,690.725281 
	C597.410950,692.189758 605.279236,681.407715 605.801025,671.189392 
	C606.280273,661.804260 598.926208,650.126526 581.999390,650.459473 
	C581.999390,660.778442 581.999390,671.120911 581.999329,682.453491 
z"/>
<path fill="#F4F4F4" opacity="1.000000" stroke="none" 
	d="
M637.783936,642.709717 
	C645.403992,634.965942 667.171570,636.402100 675.067078,644.707703 
	C676.824707,646.556641 678.743774,648.991760 676.421509,652.236206 
	C674.466553,654.967407 672.547913,655.679260 669.560425,654.203125 
	C666.694580,652.787048 663.696533,651.641357 660.786255,650.311951 
	C655.763672,648.017639 651.059875,648.399170 646.622314,651.777954 
	C642.824158,654.670105 642.774475,658.001709 647.050659,659.886047 
	C651.852661,662.002014 657.039246,663.226807 661.986267,665.036682 
	C670.036865,667.982239 677.638184,671.280579 679.166870,681.381897 
	C679.956360,686.598328 677.220154,694.829407 673.091736,698.041260 
	C662.330322,706.413513 644.461792,705.865784 634.069824,696.669189 
	C629.876221,692.957886 628.683533,689.466003 631.211426,686.217468 
	C634.115662,682.485107 636.777954,684.718445 639.669250,686.138977 
	C644.972168,688.744446 649.871399,693.372009 656.255615,691.822266 
	C660.117737,690.884644 664.032104,688.740479 667.035278,686.120789 
	C669.589783,683.892456 667.349670,681.129395 664.867371,680.084717 
	C658.707092,677.492493 652.392090,675.258667 646.096252,673.000610 
	C640.389160,670.953613 635.153992,668.348022 633.006042,662.138306 
	C630.485840,654.852478 631.944885,648.408264 637.783936,642.709717 
z"/>
<path fill="#F4F4F4" opacity="1.000000" stroke="none" 
	d="
M292.545105,635.013062 
	C294.667023,636.901245 298.974213,634.513733 299.090088,639.221375 
	C299.225189,644.708130 297.633850,646.885620 291.947662,646.974426 
	C285.145660,647.080566 278.340729,646.999451 270.970459,646.999451 
	C270.970459,651.307434 270.970459,655.371948 270.970459,659.999756 
	C275.092377,659.999756 279.807495,659.796814 284.495819,660.064331 
	C288.211426,660.276306 292.417969,660.034180 294.520020,664.114746 
	C295.344269,665.714905 296.308563,668.253418 295.613861,669.386658 
	C294.593475,671.051086 292.197052,672.719604 290.289703,672.839294 
	C283.689148,673.253784 277.046509,672.999084 269.684814,672.999084 
	C270.192169,677.871216 270.654175,682.307922 271.110382,686.688660 
	C278.213348,687.141968 284.936615,687.590515 291.662659,687.992371 
	C295.146545,688.200500 297.851379,688.631042 298.151154,693.351868 
	C298.470032,698.373657 295.868347,699.957214 291.919373,699.919678 
	C281.846497,699.824219 271.773590,699.403503 261.712891,698.879272 
	C260.765015,698.829834 259.134216,697.140198 259.118561,696.190796 
	C258.929504,684.709656 258.980469,673.224548 258.978119,661.740417 
	C258.976776,655.244080 258.979004,648.747620 259.004272,642.251343 
	C259.027527,636.278748 260.249634,635.021118 266.101685,635.006287 
	C274.763641,634.984253 283.425690,635.001343 292.545105,635.013062 
z"/>
<path fill="#F4F4F4" opacity="1.000000" stroke="none" 
	d="
M247.861237,661.436523 
	C242.823608,675.379700 230.981934,675.261353 218.999161,676.128357 
	C218.999161,681.491394 219.091202,686.923340 218.970551,692.350464 
	C218.870880,696.833313 216.380844,699.045654 212.408691,699.049255 
	C208.221878,699.053101 207.079865,696.111633 207.101883,693.114746 
	C207.211243,678.231262 207.664185,663.350403 207.981705,648.468262 
	C208.027817,646.307495 207.997406,644.145020 208.000137,641.983337 
	C208.008316,635.497070 208.663620,634.287292 214.881866,634.120789 
	C221.591812,633.941101 228.375763,634.300049 235.035156,635.148376 
	C240.559021,635.852051 247.289780,644.007996 247.929672,650.139648 
	C248.305222,653.738342 247.993484,657.408875 247.861237,661.436523 
M234.617294,650.094666 
	C230.262161,645.670837 224.613632,646.763306 219.237946,645.925354 
	C219.237946,651.565308 219.237946,656.628052 219.237946,662.001282 
	C222.092026,662.001282 224.711884,661.999207 227.331741,662.001648 
	C234.773239,662.008606 237.656113,657.796021 234.617294,650.094666 
z"/>
<path fill="#F4F4F4" opacity="1.000000" stroke="none" 
	d="
M492.066467,641.187500 
	C492.416473,643.178223 492.950470,644.739502 492.960388,646.304138 
	C493.030945,657.460510 493.104095,668.619141 492.947632,679.773865 
	C492.864655,685.687988 492.474030,691.609497 491.933990,697.501221 
	C491.604919,701.090942 489.011261,702.160400 485.682861,702.016541 
	C482.731720,701.889038 480.946014,701.195496 480.914917,697.507385 
	C480.780731,681.610168 480.274536,665.716492 480.054749,649.819458 
	C480.014618,646.917786 480.215668,643.838867 481.185059,641.160217 
	C481.797058,639.469116 484.171509,637.138977 485.526276,637.281067 
	C487.783539,637.517700 489.857025,639.507812 492.066467,641.187500 
z"/>
<path fill="#000000" opacity="1.000000" stroke="none" 
	d="
M173.995789,677.906738 
	C164.323929,689.737061 155.762222,687.284180 148.897263,681.071228 
	C140.897919,673.831604 139.850937,660.668762 147.223495,651.387024 
	C153.334930,643.692932 164.479736,642.469055 171.369904,649.098328 
	C178.711197,656.161560 182.764832,667.640564 173.995789,677.906738 
z"/>
<path fill="#000000" opacity="1.000000" stroke="none" 
	d="
M581.999390,681.958435 
	C581.999390,671.120911 581.999390,660.778442 581.999390,650.459473 
	C598.926208,650.126526 606.280273,661.804260 605.801025,671.189392 
	C605.279236,681.407715 597.410950,692.189758 581.999329,690.725281 
	C581.999329,688.004456 581.999329,685.228943 581.999390,681.958435 
z"/>
<path fill="#000000" opacity="1.000000" stroke="none" 
	d="
M234.801285,650.455139 
	C237.656113,657.796021 234.773239,662.008606 227.331741,662.001648 
	C224.711884,661.999207 222.092026,662.001282 219.237946,662.001282 
	C219.237946,656.628052 219.237946,651.565308 219.237946,645.925354 
	C224.613632,646.763306 230.262161,645.670837 234.801285,650.455139 
z"/>
</svg>